<?xml version="1.0" encoding="UTF-8"?>
<svg id="Layer_1" data-name="Layer 1" xmlns="http://www.w3.org/2000/svg" viewBox="0 0 57.26 9.11">
  <defs>
    <style>
      .cls-1 {
        fill: #231f20;
        stroke-width: 0px;
      }
    </style>
  </defs>
  <path class="cls-1" d="M7.58,2.19h-.1c-.07-.42-.27-.78-.59-1.07s-.69-.51-1.11-.64-.81-.2-1.17-.2c-.5,0-.96.1-1.4.31s-.81.5-1.13.88-.56.84-.74,1.37-.26,1.11-.26,1.74.08,1.17.25,1.68.42.97.74,1.35.7.67,1.13.86.91.29,1.43.29c.44,0,.92-.09,1.44-.27s1-.47,1.42-.89v.33c-.52.4-1,.7-1.43.88s-.97.28-1.61.28c-.68,0-1.3-.12-1.86-.37s-1.03-.58-1.42-1-.68-.9-.88-1.42-.3-1.07-.3-1.63c0-.84.21-1.62.62-2.34s.97-1.29,1.68-1.71,1.47-.63,2.3-.63c.51,0,1.06.08,1.63.23l.61.17c.12.02.22.04.3.04.15,0,.25-.02.3-.07s.09-.13.12-.24h.09l-.08,2.06Z"/>
  <path class="cls-1" d="M18.64,4.58c0,.81-.2,1.56-.6,2.26s-.95,1.25-1.64,1.66-1.46.62-2.3.62-1.62-.21-2.32-.62-1.26-.97-1.66-1.67-.61-1.46-.61-2.29c0-.63.12-1.23.36-1.78s.58-1.04,1.01-1.46.92-.73,1.48-.96,1.13-.34,1.73-.34,1.16.11,1.7.33,1.03.53,1.46.94.77.9,1.02,1.46.37,1.18.37,1.85ZM17.6,4.6c0-1.15-.2-2.05-.61-2.7s-.88-1.08-1.41-1.3-1.03-.33-1.5-.33c-.36,0-.74.06-1.13.18s-.77.34-1.14.65-.67.76-.91,1.34-.36,1.28-.36,2.13c0,.74.1,1.39.3,1.94s.47,1,.81,1.35.73.6,1.14.76.85.23,1.3.23c.4,0,.81-.07,1.22-.21s.79-.38,1.13-.7.62-.76.83-1.31.32-1.23.32-2.02Z"/>
  <path class="cls-1" d="M20.62,8.79h.12c.21,0,.4-.08.56-.25s.24-.4.24-.7V1.32c0-.36-.09-.61-.27-.75s-.4-.21-.65-.22v-.1h2.76v.1c-.24,0-.46.08-.64.22s-.28.39-.28.76v6.3c0,.38.09.63.28.78s.49.22.92.22h.74c.32,0,.58-.04.78-.12s.35-.2.46-.36.23-.39.35-.68h.1l-.33,1.42h-5.13v-.09Z"/>
  <path class="cls-1" d="M27.5.35v-.1h5.14v1.36h-.08c0-.73-.48-1.09-1.45-1.09h-1.8v3.92h1.58c.31,0,.59-.05.84-.15s.39-.33.42-.7h.09v1.96h-.09c-.04-.22-.1-.39-.2-.51s-.19-.2-.29-.24-.18-.06-.25-.06c-.14-.02-.29-.04-.44-.04h-1.66v3.06c0,.23.04.43.13.6s.29.25.61.25h1.28c.31,0,.56-.04.76-.13s.36-.21.47-.38.21-.35.29-.58h.08l-.3,1.35h-5.14v-.09h.12c.18,0,.36-.07.54-.22s.26-.39.26-.73V1.34c0-.27-.06-.5-.18-.69s-.33-.29-.62-.29h-.12Z"/>
  <path class="cls-1" d="M40.23.58h-4.13c-.34,0-.62.04-.84.11s-.39.2-.52.38-.22.43-.28.75h-.09V.25h7.07v.17l-5.98,8.14h4.14c.46,0,.82-.05,1.08-.15s.45-.22.56-.37.23-.35.35-.61h.09l-.4,1.44h-7.02v-.18L40.23.58Z"/>
  <path class="cls-1" d="M48.88.58h-4.13c-.34,0-.62.04-.84.11s-.39.2-.52.38-.22.43-.28.75h-.09V.25h7.07v.17l-5.98,8.14h4.14c.46,0,.82-.05,1.08-.15s.45-.22.56-.37.23-.35.35-.61h.09l-.4,1.44h-7.02v-.18L48.88.58Z"/>
  <path class="cls-1" d="M51.82.35v-.1h5.14v1.36h-.08c0-.73-.48-1.09-1.45-1.09h-1.8v3.92h1.58c.31,0,.59-.05.84-.15s.39-.33.42-.7h.09v1.96h-.09c-.04-.22-.1-.39-.2-.51s-.19-.2-.29-.24-.18-.06-.25-.06c-.14-.02-.29-.04-.44-.04h-1.66v3.06c0,.23.04.43.13.6s.29.25.61.25h1.28c.31,0,.56-.04.76-.13s.36-.21.47-.38.21-.35.29-.58h.08l-.3,1.35h-5.14v-.09h.12c.18,0,.36-.07.54-.22s.26-.39.26-.73V1.34c0-.27-.06-.5-.18-.69s-.33-.29-.62-.29h-.12Z"/>
</svg>